<svg xmlns="http://www.w3.org/2000/svg" width="960" height="520" viewBox="0 0 960 520">
  <rect width="960" height="520" fill="#050812"/>
  <rect x="28" y="28" width="904" height="464" rx="20" fill="#0f1629" stroke="#00ffff" stroke-width="3"/>
  <text x="480" y="82" fill="#00ffff" font-family="monospace" font-size="32" text-anchor="middle">BST After Insertions</text>
  <g stroke="#00ffff" stroke-width="3" fill="none">
    <line x1="480" y1="140" x2="340" y2="220"/>
    <line x1="480" y1="140" x2="620" y2="220"/>
    <line x1="340" y1="220" x2="250" y2="300"/>
    <line x1="340" y1="220" x2="430" y2="300"/>
    <line x1="620" y1="220" x2="550" y2="300"/>
    <line x1="250" y1="300" x2="200" y2="380"/>
    <line x1="250" y1="300" x2="300" y2="380"/>
  </g>
  <g font-family="monospace" font-size="28" text-anchor="middle">
    <circle cx="480" cy="140" r="34" fill="#122032" stroke="#10b981" stroke-width="3"/><text x="480" y="150" fill="#e2e8f0">10</text>
    <circle cx="340" cy="220" r="34" fill="#122032" stroke="#10b981" stroke-width="3"/><text x="340" y="230" fill="#e2e8f0">4</text>
    <circle cx="620" cy="220" r="34" fill="#122032" stroke="#10b981" stroke-width="3"/><text x="620" y="230" fill="#e2e8f0">16</text>
    <circle cx="250" cy="300" r="34" fill="#122032" stroke="#10b981" stroke-width="3"/><text x="250" y="310" fill="#e2e8f0">2</text>
    <circle cx="430" cy="300" r="34" fill="#122032" stroke="#10b981" stroke-width="3"/><text x="430" y="310" fill="#e2e8f0">9</text>
    <circle cx="550" cy="300" r="34" fill="#122032" stroke="#10b981" stroke-width="3"/><text x="550" y="310" fill="#e2e8f0">14</text>
    <circle cx="200" cy="380" r="34" fill="#122032" stroke="#10b981" stroke-width="3"/><text x="200" y="390" fill="#e2e8f0">1</text>
    <circle cx="300" cy="380" r="34" fill="#122032" stroke="#10b981" stroke-width="3"/><text x="300" y="390" fill="#e2e8f0">3</text>
  </g>
</svg>
