<svg xmlns="http://www.w3.org/2000/svg" width="1200" height="900" viewBox="0 0 1200 900">
  <rect width="1200" height="900" fill="#050812"/>
  <rect x="70" y="70" width="1060" height="760" rx="28" fill="#0f1629" stroke="#00ffff" stroke-width="4"/>
  <text x="120" y="150" fill="#00ffff" font-size="40" font-family="monospace">Queue / Vector Final State</text>
  <text x="120" y="220" fill="#00ffff" font-size="28" font-family="monospace">queue x</text>
  <rect x="120" y="250" width="420" height="120" rx="20" fill="none" stroke="#00ffff" stroke-width="3"/>
  <rect x="160" y="275" width="140" height="70" rx="16" fill="#1e293b" stroke="#00ffff" stroke-width="3"/>
  <rect x="310" y="275" width="140" height="70" rx="16" fill="#1e293b" stroke="#00ffff" stroke-width="3"/>
  <text x="230" y="322" fill="#00ffff" font-size="34" font-family="Orbitron, monospace" text-anchor="middle">50</text>
  <text x="380" y="322" fill="#00ffff" font-size="34" font-family="Orbitron, monospace" text-anchor="middle">60</text>
  <text x="120" y="480" fill="#a855f7" font-size="28" font-family="monospace">vector y</text>
  <rect x="120" y="510" width="620" height="120" rx="20" fill="none" stroke="#a855f7" stroke-width="3"/>
  <rect x="160" y="535" width="140" height="70" rx="16" fill="#1e293b" stroke="#a855f7" stroke-width="3"/>
  <rect x="310" y="535" width="140" height="70" rx="16" fill="#1e293b" stroke="#a855f7" stroke-width="3"/>
  <rect x="460" y="535" width="140" height="70" rx="16" fill="#1e293b" stroke="#a855f7" stroke-width="3"/>
  <text x="230" y="582" fill="#a855f7" font-size="34" font-family="Orbitron, monospace" text-anchor="middle">70</text>
  <text x="380" y="582" fill="#a855f7" font-size="34" font-family="Orbitron, monospace" text-anchor="middle">80</text>
  <text x="530" y="582" fill="#a855f7" font-size="34" font-family="Orbitron, monospace" text-anchor="middle">0</text>
</svg>
